import mido

# A0 to B0
a0       = mido.Message('note_on', channel=0, note=21, velocity=64, time=0)
a_sharp0 = mido.Message('note_on', channel=0, note=22, velocity=64, time=0)
b0       = mido.Message('note_on', channel=0, note=23, velocity=64, time=0)

# C1 to B1
c1       = mido.Message('note_on', channel=0, note=24, velocity=64, time=0)
c_sharp1 = mido.Message('note_on', channel=0, note=25, velocity=64, time=0)
d1       = mido.Message('note_on', channel=0, note=26, velocity=64, time=0)
d_sharp1 = mido.Message('note_on', channel=0, note=27, velocity=64, time=0)
e1       = mido.Message('note_on', channel=0, note=28, velocity=64, time=0)
f1       = mido.Message('note_on', channel=0, note=29, velocity=64, time=0)
f_sharp1 = mido.Message('note_on', channel=0, note=30, velocity=64, time=0)
g1       = mido.Message('note_on', channel=0, note=31, velocity=64, time=0)
g_sharp1 = mido.Message('note_on', channel=0, note=32, velocity=64, time=0)
a1       = mido.Message('note_on', channel=0, note=33, velocity=64, time=0)
a_sharp1 = mido.Message('note_on', channel=0, note=34, velocity=64, time=0)
b1       = mido.Message('note_on', channel=0, note=35, velocity=64, time=0)

# C2 to B2
c2       = mido.Message('note_on', channel=0, note=36, velocity=64, time=0)
c_sharp2 = mido.Message('note_on', channel=0, note=37, velocity=64, time=0)
d2       = mido.Message('note_on', channel=0, note=38, velocity=64, time=0)
d_sharp2 = mido.Message('note_on', channel=0, note=39, velocity=64, time=0)
e2       = mido.Message('note_on', channel=0, note=40, velocity=64, time=0)
f2       = mido.Message('note_on', channel=0, note=41, velocity=64, time=0)
f_sharp2 = mido.Message('note_on', channel=0, note=42, velocity=64, time=0)
g2       = mido.Message('note_on', channel=0, note=43, velocity=64, time=0)
g_sharp2 = mido.Message('note_on', channel=0, note=44, velocity=64, time=0)
a2       = mido.Message('note_on', channel=0, note=45, velocity=64, time=0)
a_sharp2 = mido.Message('note_on', channel=0, note=46, velocity=64, time=0)
b2       = mido.Message('note_on', channel=0, note=47, velocity=64, time=0)

# C3 to B3
c3       = mido.Message('note_on', channel=0, note=48, velocity=64, time=0)
c_sharp3 = mido.Message('note_on', channel=0, note=49, velocity=64, time=0)
d3       = mido.Message('note_on', channel=0, note=50, velocity=64, time=0)
d_sharp3 = mido.Message('note_on', channel=0, note=51, velocity=64, time=0)
e3       = mido.Message('note_on', channel=0, note=52, velocity=64, time=0)
f3       = mido.Message('note_on', channel=0, note=53, velocity=64, time=0)
f_sharp3 = mido.Message('note_on', channel=0, note=54, velocity=64, time=0)
g3       = mido.Message('note_on', channel=0, note=55, velocity=64, time=0)
g_sharp3 = mido.Message('note_on', channel=0, note=56, velocity=64, time=0)
a3       = mido.Message('note_on', channel=0, note=57, velocity=64, time=0)
a_sharp3 = mido.Message('note_on', channel=0, note=58, velocity=64, time=0)
b3       = mido.Message('note_on', channel=0, note=59, velocity=64, time=0)

# C4 to B4
c4       = mido.Message('note_on', channel=0, note=60, velocity=64, time=0)
c_sharp4 = mido.Message('note_on', channel=0, note=61, velocity=64, time=0)
d4       = mido.Message('note_on', channel=0, note=62, velocity=64, time=0)
d_sharp4 = mido.Message('note_on', channel=0, note=63, velocity=64, time=0)
e4       = mido.Message('note_on', channel=0, note=64, velocity=64, time=0)
f4       = mido.Message('note_on', channel=0, note=65, velocity=64, time=0)
f_sharp4 = mido.Message('note_on', channel=0, note=66, velocity=64, time=0)
g4       = mido.Message('note_on', channel=0, note=67, velocity=64, time=0)
g_sharp4 = mido.Message('note_on', channel=0, note=68, velocity=64, time=0)
a4       = mido.Message('note_on', channel=0, note=69, velocity=64, time=0)
a_sharp4 = mido.Message('note_on', channel=0, note=70, velocity=64, time=0)
b4       = mido.Message('note_on', channel=0, note=71, velocity=64, time=0)

# C5 to B5
c5       = mido.Message('note_on', channel=0, note=72, velocity=64, time=0)
c_sharp5 = mido.Message('note_on', channel=0, note=73, velocity=64, time=0)
d5       = mido.Message('note_on', channel=0, note=74, velocity=64, time=0)
d_sharp5 = mido.Message('note_on', channel=0, note=75, velocity=64, time=0)
e5       = mido.Message('note_on', channel=0, note=76, velocity=64, time=0)
f5       = mido.Message('note_on', channel=0, note=77, velocity=64, time=0)
f_sharp5 = mido.Message('note_on', channel=0, note=78, velocity=64, time=0)
g5       = mido.Message('note_on', channel=0, note=79, velocity=64, time=0)
g_sharp5 = mido.Message('note_on', channel=0, note=80, velocity=64, time=0)
a5       = mido.Message('note_on', channel=0, note=81, velocity=64, time=0)
a_sharp5 = mido.Message('note_on', channel=0, note=82, velocity=64, time=0)
b5       = mido.Message('note_on', channel=0, note=83, velocity=64, time=0)

# C6 to B6
c6       = mido.Message('note_on', channel=0, note=84, velocity=64, time=0)
c_sharp6 = mido.Message('note_on', channel=0, note=85, velocity=64, time=0)
d6       = mido.Message('note_on', channel=0, note=86, velocity=64, time=0)
d_sharp6 = mido.Message('note_on', channel=0, note=87, velocity=64, time=0)
e6       = mido.Message('note_on', channel=0, note=88, velocity=64, time=0)
f6       = mido.Message('note_on', channel=0, note=89, velocity=64, time=0)
f_sharp6 = mido.Message('note_on', channel=0, note=90, velocity=64, time=0)
g6       = mido.Message('note_on', channel=0, note=91, velocity=64, time=0)
g_sharp6 = mido.Message('note_on', channel=0, note=92, velocity=64, time=0)
a6       = mido.Message('note_on', channel=0, note=93, velocity=64, time=0)
a_sharp6 = mido.Message('note_on', channel=0, note=94, velocity=64, time=0)
b6       = mido.Message('note_on', channel=0, note=95, velocity=64, time=0)

# C7 to B7
c7       = mido.Message('note_on', channel=0, note=96, velocity=64, time=0)
c_sharp7 = mido.Message('note_on', channel=0, note=97, velocity=64, time=0)
d7       = mido.Message('note_on', channel=0, note=98, velocity=64, time=0)
d_sharp7 = mido.Message('note_on', channel=0, note=99, velocity=64, time=0)
e7       = mido.Message('note_on', channel=0, note=100, velocity=64, time=0)
f7       = mido.Message('note_on', channel=0, note=101, velocity=64, time=0)
f_sharp7 = mido.Message('note_on', channel=0, note=102, velocity=64, time=0)
g7       = mido.Message('note_on', channel=0, note=103, velocity=64, time=0)
g_sharp7 = mido.Message('note_on', channel=0, note=104, velocity=64, time=0)
a7       = mido.Message('note_on', channel=0, note=105, velocity=64, time=0)
a_sharp7 = mido.Message('note_on', channel=0, note=106, velocity=64, time=0)
b7       = mido.Message('note_on', channel=0, note=107, velocity=64, time=0)

# C8
c8       = mido.Message('note_on', channel=0, note=108, velocity=64, time=0)